<svg xmlns="http://www.w3.org/2000/svg" width="32" height="32" fill="none"><g clip-path="url(#a)"><path fill="#EDC33D" d="M24.8 17.6c-3.68 0-6.88 3.2-6.88 7.04s3.2 7.04 6.88 7.04 6.88-3.04 6.88-7.04-3.2-7.04-6.88-7.04m4.48 8.16h-3.36v3.36c0 .48-.48.96-.96.96h-.48c-.48 0-.96-.48-.96-.96v-3.36h-3.36c-.48 0-.96-.48-.96-.96v-.48c0-.48.48-.96.96-.96h3.36V20c0-.48.48-.96.96-.96h.48c.48 0 .96.48.96.96v3.36h3.36c.48 0 .96.48.96.96v.48q0 .96-.96.96"/><path fill="#407EF0" d="M13.44 16.16c4.32 0 7.84-3.52 7.84-8 0-4.32-3.36-8-7.84-8s-7.84 3.52-7.84 8c.32 4.64 3.68 8 7.84 8m6.4 1.92c-.96-.32-2.08-.64-3.2-.64h-6.4C4.8 17.44.32 22.08.32 27.68v.8c0 2.4 4.48 2.4 9.92 2.4h8.32c-1.6-1.6-2.56-3.52-2.56-5.92.16-2.88 1.76-5.44 3.84-6.88"/></g><defs><clipPath id="a"><path fill="#fff" d="M0 0h32v32H0z"/></clipPath></defs></svg>