<svg xmlns="http://www.w3.org/2000/svg" width="30" height="30" fill="none" viewBox="0 0 30 30"><circle cx="15" cy="15" r="13" fill="#e22d2d"/><mask id="a" width="26" height="26" x="2" y="2" maskUnits="userSpaceOnUse" style="mask-type:alpha"><circle cx="15" cy="15" r="13" fill="#ce1126"/></mask><g mask="url(#a)"><path fill="#fcd116" d="m19.709 20.47 1.136.008-.878.69.345 1.105-.962-.658-.962.658.323-1.119-.856-.677 1.135-.007.36-1.026zm4.154-4.16 1.136.008-.878.692.346 1.104-.962-.658-.962.658.322-1.119-.855-.677 1.134-.008.36-1.025zm-13.118-6.197 3.464.027-2.677 2.221 1.053 3.548-2.934-2.114-2.934 2.114.984-3.594-2.607-2.176 3.463-.027 1.094-3.294zm13.267.108 1.135.008-.878.692.346 1.103-.962-.658-.962.658.322-1.119-.855-.675 1.135-.01.36-1.025zm-4.303-4.196 1.136.008-.878.692.345 1.103-.962-.657-.962.657.323-1.118-.856-.677 1.135-.008L19.35 5z"/></g><g clip-path="url(#b)"><path fill="#f0f0f0" d="M14.984 0c8.275 0 14.983 6.709 14.983 14.984 0 8.274-6.708 14.984-14.983 14.984S0 23.258 0 14.984 6.708 0 14.984 0"/><path fill="#d80027" d="M20.195 14.984c0 1.303-2.333 4.56-5.212 4.56s-5.211-3.257-5.211-4.56a5.212 5.212 0 1 1 10.423 0"/><path fill="#0052b4" d="M20.195 14.983a5.212 5.212 0 1 1-10.423 0"/><path fill="#000" d="m20.511 19.591 1.383-1.382.92.922-1.381 1.381zm-2.304 2.303 1.383-1.381.921.92-1.383 1.383zm5.07.46 1.38-1.382.92.922-1.38 1.382zm-2.305 2.303 1.383-1.381.92.92-1.382 1.383zm.921-3.685 1.383-1.382.92.922-1.381 1.382zm.002 1.842-1.382 1.382-.922-.921 1.382-1.382zm1.381-12.437-3.685-3.686.921-.92 3.686 3.685zm-3.685-.92-1.383-1.382.921-.921 1.383 1.382zm2.303 2.302-1.383-1.382.922-.921 1.383 1.382zm-.002-7.37 1.382 1.382-.921.922L20.97 5.31zm2.766 4.607-1.383-1.382.922-.921 1.382 1.382zM5.31 20.973l3.686 3.685-.923.922-3.685-3.685zm3.685.92 1.381 1.383-.92.92-1.382-1.381zM6.692 19.59l1.383 1.382-.922.922-1.383-1.382zm1.382-1.382 3.686 3.686-.923.92-3.685-3.684zM8.995 5.31 5.309 8.995l-.922-.921 3.687-3.685zM5.769 9.456 9.455 5.77l.92.921-3.684 3.685zm5.99-1.381L8.075 11.76l-.922-.922 3.686-3.685z"/></g><defs><clipPath id="b"><path fill="#fff" d="M0 0h30v30H0z"/></clipPath></defs></svg>