<svg xmlns="http://www.w3.org/2000/svg" width="108" height="108" fill="none" viewBox="0 0 108 108"><path fill="#407ef0" d="M10.8 94.5c0 1.432 4.551 2.806 12.653 3.819S42.543 99.9 54 99.9s22.445-.569 30.547-1.582C92.65 97.307 97.2 95.933 97.2 94.5s-4.551-2.806-12.653-3.818S65.457 89.1 54 89.1s-22.445.569-30.547 1.582C15.352 91.694 10.8 93.068 10.8 94.5" opacity=".1"/><path fill="#407ef0" d="M12.312 39.744c0 .918.702 1.62 1.62 1.62s1.62-.702 1.62-1.62-.702-1.62-1.62-1.62c-.864 0-1.62.756-1.62 1.62M97.74 87.75c-2.052.54-2.484.972-2.97 2.97-.54-2.052-.972-2.484-2.97-2.97 1.998-.54 2.484-.972 2.97-2.97.486 1.998.918 2.484 2.97 2.97M21.33 34.074c-2.646.702-3.186 1.242-3.888 3.888-.703-2.646-1.242-3.186-3.889-3.888 2.646-.702 3.186-1.296 3.889-3.888.648 2.646 1.241 3.186 3.887 3.888m64.8-9.288c-1.62.432-1.944.756-2.376 2.376-.433-1.62-.757-1.944-2.377-2.376 1.62-.432 1.945-.756 2.377-2.376.377 1.62.755 1.944 2.375 2.376m6.966-8.316c-4.213 1.08-5.077 1.998-6.21 6.21-1.08-4.212-1.998-5.076-6.21-6.21 4.212-1.08 5.075-1.998 6.21-6.21 1.08 4.158 1.998 5.076 6.21 6.21" opacity=".5"/><path fill="#407ef0" d="M44.28 75.222v.432l3.564 3.294 13.662-6.642-12.366 7.938v3.888l1.998-1.944 1.998 1.944 10.584-12.96v-.432z" opacity=".2"/><path fill="#407ef0" d="M90.72 58.212v-.108c0-.108-.054-.162-.054-.27v-.054l-11.61-30.294A12.42 12.42 0 0 0 67.23 18.9H40.824c-5.4 0-10.152 3.456-11.826 8.586L17.388 57.78v.054c-.054.108-.054.162-.054.27V79.92c0 6.858 5.562 12.42 12.42 12.42h48.6c6.858 0 12.42-5.562 12.42-12.42v-21.6c-.054-.054-.054-.054-.054-.108M32.022 28.62s0-.054.054-.054c1.188-3.888 4.752-6.426 8.748-6.426h26.352c3.996 0 7.56 2.538 8.802 6.372 0 0 0 .054.054.054l10.746 28.08H62.1c-.918 0-1.62.702-1.62 1.62 0 3.564-2.916 6.48-6.48 6.48s-6.48-2.916-6.48-6.48c0-.918-.702-1.62-1.62-1.62H21.276zm55.458 51.3a9.17 9.17 0 0 1-9.18 9.18H29.7a9.17 9.17 0 0 1-9.18-9.18V59.94h23.922c.756 4.59 4.752 8.1 9.558 8.1s8.802-3.51 9.558-8.1H87.48z" opacity=".5"/><path fill="#407ef0" d="M54 61.02a2.674 2.674 0 0 1-2.7-2.7v-5.4H26.73l8.857-23.112.053-.108c.757-2.268 2.809-3.78 5.185-3.78h26.352c2.375 0 4.427 1.512 5.183 3.78l.055.108L81.27 52.92H56.7v5.4c0 1.512-1.187 2.7-2.7 2.7" opacity=".2"/></svg>