<svg width="24" height="25" viewBox="0 0 24 25" fill="none" xmlns="http://www.w3.org/2000/svg">
<path d="M0.352442 9.17007C0.911728 6.86021 2.14473 4.76861 3.89494 3.1608C5.64514 1.55299 7.8336 0.501473 10.1825 0.139735C12.5314 -0.222003 14.9349 0.122352 17.0877 1.12908C19.2406 2.13582 21.0457 3.75953 22.2741 5.79409C23.5024 7.82866 24.0985 10.1823 23.9867 12.5563C23.8749 14.9303 23.0603 17.2175 21.6462 19.1276C20.2321 21.0378 18.2823 22.4846 16.0444 23.2846C13.8064 24.0846 11.3813 24.2015 9.07675 23.6206C7.5538 23.2469 6.1196 22.5762 4.85634 21.6471C3.59309 20.718 2.52562 19.5487 1.71514 18.2062C0.90465 16.8638 0.367081 15.3746 0.133243 13.824C-0.100596 12.2733 -0.0261064 10.6918 0.352442 9.17007Z" fill="#F7F8F8"/>
<path d="M22.988 7.53788H13.739V9.32172H23.5726C23.4231 8.71317 23.2277 8.11684 22.988 7.53788ZM20.6195 3.8353H13.739V5.6641H22.0436C21.6291 5.00995 21.1521 4.39749 20.6195 3.8353ZM3.3208 20.3245H20.5745C21.1274 19.7605 21.629 19.1485 22.0736 18.4957H1.88174C2.31653 19.1557 2.81892 19.7687 3.38076 20.3245M14.8033 0.44751C14.4585 0.357568 14.0988 0.282617 13.739 0.222656V2.00649H18.4309C17.3174 1.30097 16.09 0.793794 14.8033 0.50747M23.7974 11.2105H13.739V13.0393H23.8424C23.8948 12.4308 23.8948 11.819 23.8424 11.2105M0.922363 16.6369H22.958C23.197 16.0746 23.3876 15.4929 23.5276 14.8981V14.8081H0.322754C0.468223 15.4343 0.668877 16.0462 0.922363 16.6369ZM9.07704 23.6224C9.76734 23.8233 10.475 23.9588 11.1907 24.0271H12.6897C14.6889 23.9077 16.6242 23.2781 18.311 22.1983H5.53935C6.62899 22.8875 7.82399 23.3938 9.07704 23.6973" fill="#E72D14"/>
<path d="M12.824 12.303L12.5692 12.1231L12.3144 12.303L12.4043 12.0032L12.1495 11.8233H12.4643L12.5692 11.5085L12.6741 11.8233H12.9889L12.7341 12.0032L12.824 12.303ZM11.5649 2.67929L11.6548 3.03906L11.4 2.84419L11.1451 3.03906L11.2351 2.72426L10.9802 2.54438H11.295L11.4 2.22959L11.5049 2.54438H11.8197L11.5649 2.67929ZM11.5649 5.43749L11.6548 5.7373L11.4 5.54243L11.1451 5.7373L11.2351 5.43749L10.9802 5.24262H11.295L11.4 4.94282L11.5049 5.24262H11.8197L11.5649 5.43749ZM11.5649 8.12074L11.6698 8.43554L11.4 8.24066L11.1451 8.43554L11.2501 8.12074L10.9802 7.94086H11.31L11.4 7.64106L11.5049 7.94086H11.7897L11.5649 8.12074ZM11.5649 11.1188L11.31 10.9389L11.0552 11.1188L11.1451 10.819L10.9353 10.5342H11.2501L11.355 10.2344L11.4449 10.5342H11.7747L11.5049 10.729L11.5649 11.1188ZM10.3357 4.01342L10.4406 4.31323L10.1858 4.13334L9.91593 4.31323L10.0209 4.01342L9.76603 3.83354H10.0808L10.1858 3.51875L10.2757 3.83354H10.6055L10.3357 4.01342ZM10.3357 6.68168L10.4406 6.98149L10.1858 6.8016L9.91593 6.98149L10.0209 6.68168L9.76603 6.48681H10.0808L10.1858 6.187L10.2757 6.48681H10.6055L10.3357 6.68168ZM10.3357 9.4099L10.4406 9.70971L10.1858 9.51483L9.91593 9.70971L10.0209 9.4099L9.76603 9.21503H10.0808L10.1858 8.91522L10.2757 9.21503H10.6055L10.3357 9.4099ZM10.4406 12.303L10.1858 12.1231L9.91593 12.303L10.0209 12.0032L9.76603 11.8233H10.0808L10.1858 11.5085L10.2757 11.8233H10.6055L10.3357 12.0332L10.4406 12.303ZM9.16642 2.67929L9.27135 3.03906L9.01652 2.84419L8.74669 3.03906L8.85162 2.72426L8.59679 2.54438H8.94156L9.0465 2.22959L9.13644 2.54438H9.46622L9.16642 2.67929ZM9.16642 5.43749L9.27135 5.7373L9.01652 5.54243L8.74669 5.7373L8.85162 5.43749L8.59679 5.24262H8.94156L9.0465 4.94282L9.13644 5.24262H9.46622L9.16642 5.43749ZM9.16642 8.12074L9.25636 8.43554L8.94156 8.24066L8.68673 8.43554L8.77667 8.12074L8.52184 7.94086H8.94156V7.64106L9.0465 7.94086H9.36129L9.16642 8.12074ZM9.16642 11.1188L8.94156 10.9089L8.67174 11.0888L8.77667 10.789L8.55182 10.5342H8.94156V10.2943L9.03151 10.5941H9.3463L9.09147 10.789L9.16642 11.1188ZM7.89225 1.37515L7.99718 1.68994L7.78732 1.54004L7.53248 1.73491L7.63742 1.42012L7.44254 1.16528H7.75734L7.84728 0.865478L7.95221 1.16528H8.267L7.89225 1.37515ZM7.89225 4.0434L7.99718 4.34321L7.72736 4.16333L7.47252 4.34321L7.57745 4.0434L7.44254 3.83354H7.75734L7.84728 3.51875L7.95221 3.83354H8.267L7.89225 4.0434ZM7.89225 6.71166L7.99718 7.01147L7.72736 6.83158L7.47252 7.01147L7.57745 6.71166L7.44254 6.48681H7.75734L7.84728 6.187L7.95221 6.48681H8.267L7.89225 6.71166ZM7.89225 9.43988L7.99718 9.73969L7.72736 9.54481L7.47252 9.73969L7.57745 9.43988L7.44254 9.21503H7.75734L7.84728 8.91522L7.95221 9.21503H8.267L7.89225 9.43988ZM7.99718 12.333L7.72736 12.1531L7.47252 12.333L7.57745 12.0332L7.44254 11.8233H7.75734L7.84728 11.5085L7.95221 11.8233H8.267L7.95221 12.0332L7.99718 12.333ZM6.78297 2.58935L6.8879 2.88916L6.61808 2.70927L6.36325 2.88916L6.46818 2.58935L6.19835 2.39448H6.52814L6.61808 2.09468L6.72301 2.39448H7.03781L6.78297 2.58935ZM6.78297 5.33256L6.8879 5.63237L6.61808 5.45248L6.36325 5.63237L6.46818 5.33256L6.19835 5.15268H6.52814L6.61808 4.85288L6.72301 5.15268H7.03781L6.78297 5.33256ZM6.78297 8.0308L6.8879 8.33061L6.63307 8.15072L6.36325 8.33061L6.46818 8.0308L6.18336 7.83593H6.49816L6.60309 7.53612L6.69303 7.83593H7.02282L6.78297 8.0308ZM6.78297 11.0288L6.52814 10.834L6.27331 11.0288L6.37824 10.729L6.15338 10.5342H6.48317L6.57311 10.2344L6.67804 10.5342H6.99284L6.738 10.729L6.78297 11.0288ZM5.56877 4.01342L5.65871 4.31323L5.40387 4.13334L5.14904 4.31323L5.25397 4.01342L4.98415 3.83354H5.31393L5.40387 3.51875L5.5088 3.83354H5.8236L5.56877 4.01342ZM5.56877 6.68168L5.65871 6.98149L5.40387 6.8016L5.14904 6.98149L5.25397 6.68168L4.98415 6.48681H5.31393L5.40387 6.187L5.5088 6.48681H5.8236L5.56877 6.68168ZM5.56877 9.4099L5.65871 9.70971L5.40387 9.51483L5.14904 9.70971L5.25397 9.4099L4.98415 9.21503H5.31393L5.40387 8.91522L5.5088 9.21503H5.8236L5.56877 9.4099ZM5.65871 12.303L5.40387 12.1231L5.14904 12.303L5.25397 12.0032L4.98415 11.8233H5.31393L5.40387 11.5085L5.5088 11.8233H5.8236L5.56877 12.0332L5.65871 12.303ZM4.4445 5.31757L4.53444 5.61738L4.27961 5.4225L4.02477 5.61738L4.11471 5.31757L3.85988 5.1227H4.14469L4.23464 4.82289L4.33957 5.1227H4.65436L4.4445 5.31757ZM4.4445 8.00082L4.54943 8.30062L4.2946 8.12074L4.02477 8.30062L4.1297 8.00082L3.87487 7.82094H4.18967L4.21965 7.53612L4.30959 7.85092H4.62438L4.4445 8.00082ZM4.4445 10.9989L4.18967 10.819L3.93483 10.9989L4.02477 10.6991L3.76994 10.5342H4.08473L4.18967 10.2344L4.2946 10.5342H4.60939L4.35456 10.729L4.4445 10.9989ZM10.0808 1.16528L10.1858 0.865478L10.2757 1.16528H10.6055L10.3357 1.34516L10.4406 1.65996L10.1858 1.54004L9.91593 1.73491L10.0209 1.42012L9.76603 1.24023L10.0808 1.16528ZM12.4643 9.21503L12.5692 8.91522L12.6741 9.21503H12.9889L12.7341 9.4099L12.824 9.70971L12.5692 9.51483L12.3144 9.70971L12.4043 9.4099L12.1495 9.21503H12.4643ZM12.4643 6.48681L12.5692 6.187L12.6741 6.48681H12.9889L12.7341 6.68168L12.824 6.98149L12.5692 6.8016L12.3144 6.98149L12.4043 6.68168L12.1495 6.48681H12.4643ZM12.4643 3.83354L12.5692 3.51875L12.6741 3.83354H12.9889L12.7341 4.01342L12.824 4.31323L12.5692 4.13334L12.3144 4.31323L12.4043 4.01342L12.1495 3.83354H12.4643ZM12.4643 1.16528L12.5692 0.865478L12.6741 1.16528H12.9889L12.7341 1.34516L12.824 1.65996L12.5692 1.54004L12.3144 1.73491L12.4043 1.42012L12.1495 1.24023L12.4643 1.16528ZM3.18532 6.68168L3.27526 6.98149L3.02043 6.8016L2.7656 6.98149L2.85554 6.68168L2.6007 6.48681H2.94548L3.05041 6.187L3.14035 6.48681H3.47013L3.18532 6.68168ZM3.18532 9.4099L3.27526 9.70971L3.02043 9.51483L2.7656 9.70971L2.85554 9.4099L2.6007 9.21503H2.94548L3.05041 8.91522L3.14035 9.21503H3.47013L3.18532 9.4099ZM3.27526 12.303L3.02043 12.1231L2.7656 12.303L2.85554 12.0032L2.6007 11.8233H2.94548L3.05041 11.5085L3.14035 11.8233H3.47013L3.18532 12.0332L3.27526 12.303ZM1.9861 7.95585L2.07605 8.25565L1.82121 8.07577L1.56638 8.25565L1.65632 7.95585L1.44646 7.77597H1.77624L1.82121 7.53612L1.92614 7.85092H2.24094L1.9861 7.95585ZM2.06105 10.9539L1.80622 10.759L1.5364 10.9539L1.64133 10.6541L1.44646 10.4292H1.76125L1.86618 10.1294L1.95612 10.4292H2.27092L2.01608 10.6241L2.06105 10.9539ZM0.891818 12.333L0.636984 12.1531L0.36716 12.333L0.472092 12.0332L0.217258 11.8533H0.532053L0.636984 11.5385L0.726925 11.8533H1.04172L0.786886 12.0332L0.891818 12.333ZM13.7384 0.220898L12.6292 0.0410156L10.4406 0.175928C8.24502 0.455765 6.16973 1.33776 4.4445 2.72426V2.85918V2.78423C4.04149 3.10244 3.66545 3.45341 3.32023 3.83354H3.50012L3.24528 4.01342L3.33522 4.31323L3.08039 4.13334L2.94548 4.2083C2.70563 4.47812 2.48078 4.77792 2.25593 5.07773L2.09104 5.30258V5.51244L1.94113 5.4225C1.19753 6.56976 0.659814 7.83796 0.35217 9.17006H0.547043L0.651974 8.87025L0.741916 9.17006H1.05671L0.801876 9.36493L0.906808 9.66473L0.651974 9.46986L0.38215 9.66473L0.487082 9.36493L0.33718 9.24501C0.0427644 10.4557 -0.0534215 11.7061 0.0523657 12.9476H13.7384V0.220898Z" fill="#073470"/>
</svg>
